<?xml version="1.0" encoding="UTF-8"?>
<!DOCTYPE svg PUBLIC "-//W3C//DTD SVG 1.1//EN" "http://www.w3.org/Graphics/SVG/1.1/DTD/svg11.dtd">
<svg xmlns="http://www.w3.org/2000/svg" version="1.1" width="476px" height="525px" style="shape-rendering:geometricPrecision; text-rendering:geometricPrecision; image-rendering:optimizeQuality; fill-rule:evenodd; clip-rule:evenodd" xmlns:xlink="http://www.w3.org/1999/xlink">
<g><path style="opacity:0.203" fill="#cfcfcf" d="M 462.5,181.5 C 460.598,183.151 458.598,183.484 456.5,182.5C 458.379,181.659 460.379,181.325 462.5,181.5 Z"/></g>
<g><path style="opacity:0.984" fill="#fdfdfd" d="M 55.5,215.5 C 53.8427,218.089 53.5094,220.756 54.5,223.5C 49.3458,245.348 56.6791,261.182 76.5,271C 91.188,276.855 106.188,277.855 121.5,274C 226.057,246.524 330.39,218.358 434.5,189.5C 438.686,189.567 442.519,188.567 446,186.5C 447.016,187.634 447.683,187.301 448,185.5C 450.577,186.165 451.41,187.499 450.5,189.5C 337.198,239.996 223.532,289.829 109.5,339C 92.9143,344.417 75.9143,347.584 58.5,348.5C 52.0706,348.53 45.7373,347.863 39.5,346.5C 39.3893,345.883 39.056,345.383 38.5,345C 34.3917,343.905 30.3917,342.738 26.5,341.5C 15.4496,336.946 7.94956,328.946 4,317.5C 0.765908,307.397 -0.234092,297.064 1,286.5C 4.17052,271.988 9.50385,258.322 17,245.5C 30.3383,222.163 46.6717,201.163 66,182.5C 66.6667,183.833 66.6667,185.167 66,186.5C 62.4364,196.264 58.9364,205.931 55.5,215.5 Z"/></g>
<g><path style="opacity:0.816" fill="#f1f1f1" d="M 462.5,181.5 C 464.337,181.639 464.67,182.306 463.5,183.5C 459.265,185.785 454.931,187.785 450.5,189.5C 451.41,187.499 450.577,186.165 448,185.5C 447.683,187.301 447.016,187.634 446,186.5C 442.519,188.567 438.686,189.567 434.5,189.5C 441.444,186.258 448.777,183.925 456.5,182.5C 458.598,183.484 460.598,183.151 462.5,181.5 Z"/></g>
<g><path style="opacity:0.157" fill="#dcdcdc" d="M 55.5,215.5 C 55.4249,218.206 55.0916,220.873 54.5,223.5C 53.5094,220.756 53.8427,218.089 55.5,215.5 Z"/></g>
<g><path style="opacity:0.133" fill="#eaeaea" d="M 26.5,341.5 C 30.3917,342.738 34.3917,343.905 38.5,345C 39.056,345.383 39.3893,345.883 39.5,346.5C 34.7096,345.796 30.3763,344.129 26.5,341.5 Z"/></g>
</svg>
