<?xml version="1.0" encoding="UTF-8"?>
<!DOCTYPE svg PUBLIC "-//W3C//DTD SVG 1.1//EN" "http://www.w3.org/Graphics/SVG/1.1/DTD/svg11.dtd">
<svg xmlns="http://www.w3.org/2000/svg" version="1.1" width="796px" height="314px" style="shape-rendering:geometricPrecision; text-rendering:geometricPrecision; image-rendering:optimizeQuality; fill-rule:evenodd; clip-rule:evenodd" xmlns:xlink="http://www.w3.org/1999/xlink">
<g><path style="opacity:0.89" fill="#8a8a8a" d="M 132.5,26.5 C 132.672,25.5084 132.338,24.8417 131.5,24.5C 132.122,23.3734 132.955,22.3734 134,21.5C 134.599,23.5348 134.099,25.2015 132.5,26.5 Z"/></g>
<g><path style="opacity:1" fill="#050505" d="M 131.5,24.5 C 132.338,24.8417 132.672,25.5084 132.5,26.5C 120.453,49.1409 112.286,73.1409 108,98.5C 105.561,115.537 108.394,131.537 116.5,146.5C 116.427,148.027 117.094,149.027 118.5,149.5C 119.167,149.5 119.5,149.833 119.5,150.5C 119.427,152.027 120.094,153.027 121.5,153.5C 139.469,169.941 160.803,177.941 185.5,177.5C 198.664,176.834 211.664,175 224.5,172C 239.854,168.162 255.187,164.328 270.5,160.5C 273.152,160.59 275.485,159.924 277.5,158.5C 283.577,156.259 289.91,154.592 296.5,153.5C 299.152,153.59 301.485,152.924 303.5,151.5C 311.9,148.565 320.567,146.231 329.5,144.5C 332.152,144.59 334.485,143.924 336.5,142.5C 339.152,142.59 341.485,141.924 343.5,140.5C 348.278,138.721 353.278,137.387 358.5,136.5C 361.152,136.59 363.485,135.924 365.5,134.5C 373.983,131.546 382.65,129.212 391.5,127.5C 394.152,127.59 396.485,126.924 398.5,125.5C 405.942,122.723 413.609,120.723 421.5,119.5C 425.162,119.277 428.495,118.277 431.5,116.5C 436.278,114.721 441.278,113.387 446.5,112.5C 449.152,112.59 451.485,111.924 453.5,110.5C 454.568,109.566 455.901,109.232 457.5,109.5C 460.152,109.59 462.485,108.924 464.5,107.5C 465.568,106.566 466.901,106.232 468.5,106.5C 471.152,106.59 473.485,105.924 475.5,104.5C 483.602,101.722 491.935,99.3882 500.5,97.5C 503.495,97.7062 506.162,97.0395 508.5,95.5C 511.152,95.5905 513.485,94.9238 515.5,93.5C 518.152,93.5905 520.485,92.9238 522.5,91.5C 524.993,90.2264 527.659,89.5597 530.5,89.5C 533.152,89.5905 535.485,88.9238 537.5,87.5C 556.856,81.4089 576.523,76.0756 596.5,71.5C 599.152,71.5905 601.485,70.9238 603.5,69.5C 608.278,67.7205 613.278,66.3872 618.5,65.5C 621.152,65.5905 623.485,64.9238 625.5,63.5C 631.656,61.2271 637.989,59.5604 644.5,58.5C 647.152,58.5905 649.485,57.9238 651.5,56.5C 669.522,50.7423 687.855,45.7423 706.5,41.5C 709.152,41.5905 711.485,40.9238 713.5,39.5C 725.611,35.7204 737.944,32.3871 750.5,29.5C 753.152,29.5905 755.485,28.9238 757.5,27.5C 758.791,27.2627 759.791,27.596 760.5,28.5C 585.31,106.407 409.976,184.24 234.5,262C 200.7,277.283 165.367,286.95 128.5,291C 101.386,294.209 76.3857,288.542 53.5,274C 33.6046,257.867 23.9379,236.867 24.5,211C 24.4544,202.562 25.4544,194.395 27.5,186.5C 28.9238,184.485 29.5905,182.152 29.5,179.5C 34.9368,159.175 43.2702,140.175 54.5,122.5C 55.9063,122.027 56.573,121.027 56.5,119.5C 58.4176,114.657 61.0843,110.323 64.5,106.5C 65.9063,106.027 66.573,105.027 66.5,103.5C 67.9063,103.027 68.573,102.027 68.5,100.5C 69.9063,100.027 70.573,99.0269 70.5,97.5C 74.3556,91.1087 78.6889,85.1087 83.5,79.5C 85.2624,78.7377 86.2624,77.4044 86.5,75.5C 87.9063,75.0269 88.573,74.0269 88.5,72.5C 91.4864,68.183 94.8197,64.183 98.5,60.5C 99.9063,60.0269 100.573,59.0269 100.5,57.5C 101.167,56.1667 102.167,55.1667 103.5,54.5C 104.906,54.0269 105.573,53.0269 105.5,51.5C 106.833,49.5 108.5,47.8333 110.5,46.5C 111.906,46.0269 112.573,45.0269 112.5,43.5C 118.527,36.8063 124.86,30.4729 131.5,24.5 Z"/></g>
<g><path style="opacity:0.945" fill="#6b6b6b" d="M 760.5,28.5 C 759.791,27.596 758.791,27.2627 757.5,27.5C 761.343,26.0505 765.343,24.7172 769.5,23.5C 770.696,23.8457 770.696,24.3457 769.5,25C 766.673,26.6636 763.673,27.8303 760.5,28.5 Z"/></g>
<g><path style="opacity:0.941" fill="#575757" d="M 757.5,27.5 C 755.485,28.9238 753.152,29.5905 750.5,29.5C 752.515,28.0762 754.848,27.4095 757.5,27.5 Z"/></g>
<g><path style="opacity:0.969" fill="#585858" d="M 713.5,39.5 C 711.485,40.9238 709.152,41.5905 706.5,41.5C 708.515,40.0762 710.848,39.4095 713.5,39.5 Z"/></g>
<g><path style="opacity:0.757" fill="#7f7f7f" d="M 112.5,43.5 C 112.573,45.0269 111.906,46.0269 110.5,46.5C 110.427,44.9731 111.094,43.9731 112.5,43.5 Z"/></g>
<g><path style="opacity:0.718" fill="#8c8c8c" d="M 105.5,51.5 C 105.573,53.0269 104.906,54.0269 103.5,54.5C 103.427,52.9731 104.094,51.9731 105.5,51.5 Z"/></g>
<g><path style="opacity:0.973" fill="#555555" d="M 651.5,56.5 C 649.485,57.9238 647.152,58.5905 644.5,58.5C 646.515,57.0762 648.848,56.4095 651.5,56.5 Z"/></g>
<g><path style="opacity:0.757" fill="#888888" d="M 100.5,57.5 C 100.573,59.0269 99.9063,60.0269 98.5,60.5C 98.427,58.9731 99.0937,57.9731 100.5,57.5 Z"/></g>
<g><path style="opacity:0.945" fill="#5d5d5d" d="M 625.5,63.5 C 623.485,64.9238 621.152,65.5905 618.5,65.5C 620.515,64.0762 622.848,63.4095 625.5,63.5 Z"/></g>
<g><path style="opacity:0.945" fill="#5b5b5b" d="M 603.5,69.5 C 601.485,70.9238 599.152,71.5905 596.5,71.5C 598.515,70.0762 600.848,69.4095 603.5,69.5 Z"/></g>
<g><path style="opacity:0.475" fill="#9a9a9a" d="M 88.5,72.5 C 88.573,74.0269 87.9063,75.0269 86.5,75.5C 86.427,73.9731 87.0937,72.9731 88.5,72.5 Z"/></g>
<g><path style="opacity:0.863" fill="#7a7a7a" d="M 86.5,75.5 C 86.2624,77.4044 85.2624,78.7377 83.5,79.5C 83.7376,77.5956 84.7376,76.2623 86.5,75.5 Z"/></g>
<g><path style="opacity:1" fill="#555555" d="M 537.5,87.5 C 535.485,88.9238 533.152,89.5905 530.5,89.5C 532.515,88.0762 534.848,87.4095 537.5,87.5 Z"/></g>
<g><path style="opacity:0.945" fill="#616161" d="M 522.5,91.5 C 520.485,92.9238 518.152,93.5905 515.5,93.5C 517.515,92.0762 519.848,91.4095 522.5,91.5 Z"/></g>
<g><path style="opacity:0.945" fill="#565656" d="M 515.5,93.5 C 513.485,94.9238 511.152,95.5905 508.5,95.5C 510.515,94.0762 512.848,93.4095 515.5,93.5 Z"/></g>
<g><path style="opacity:0.976" fill="#595959" d="M 508.5,95.5 C 506.162,97.0395 503.495,97.7062 500.5,97.5C 502.905,96.2318 505.572,95.5651 508.5,95.5 Z"/></g>
<g><path style="opacity:0.557" fill="#868686" d="M 70.5,97.5 C 70.573,99.0269 69.9063,100.027 68.5,100.5C 68.427,98.9731 69.0937,97.9731 70.5,97.5 Z"/></g>
<g><path style="opacity:0.502" fill="#909090" d="M 68.5,100.5 C 68.573,102.027 67.9063,103.027 66.5,103.5C 66.427,101.973 67.0937,100.973 68.5,100.5 Z"/></g>
<g><path style="opacity:0.502" fill="#8d8d8d" d="M 66.5,103.5 C 66.573,105.027 65.9063,106.027 64.5,106.5C 64.427,104.973 65.0937,103.973 66.5,103.5 Z"/></g>
<g><path style="opacity:0.941" fill="#5c5c5c" d="M 475.5,104.5 C 473.485,105.924 471.152,106.59 468.5,106.5C 470.515,105.076 472.848,104.41 475.5,104.5 Z"/></g>
<g><path style="opacity:0.953" fill="#535353" d="M 464.5,107.5 C 462.485,108.924 460.152,109.59 457.5,109.5C 459.515,108.076 461.848,107.41 464.5,107.5 Z"/></g>
<g><path style="opacity:0.969" fill="#535353" d="M 453.5,110.5 C 451.485,111.924 449.152,112.59 446.5,112.5C 448.515,111.076 450.848,110.41 453.5,110.5 Z"/></g>
<g><path style="opacity:0.929" fill="#565656" d="M 431.5,116.5 C 428.495,118.277 425.162,119.277 421.5,119.5C 424.505,117.723 427.838,116.723 431.5,116.5 Z"/></g>
<g><path style="opacity:0.475" fill="#969696" d="M 56.5,119.5 C 56.573,121.027 55.9063,122.027 54.5,122.5C 54.427,120.973 55.0937,119.973 56.5,119.5 Z"/></g>
<g><path style="opacity:0.929" fill="#656565" d="M 398.5,125.5 C 396.485,126.924 394.152,127.59 391.5,127.5C 393.515,126.076 395.848,125.41 398.5,125.5 Z"/></g>
<g><path style="opacity:0.949" fill="#5b5b5b" d="M 365.5,134.5 C 363.485,135.924 361.152,136.59 358.5,136.5C 360.515,135.076 362.848,134.41 365.5,134.5 Z"/></g>
<g><path style="opacity:0.941" fill="#575757" d="M 343.5,140.5 C 341.485,141.924 339.152,142.59 336.5,142.5C 338.515,141.076 340.848,140.41 343.5,140.5 Z"/></g>
<g><path style="opacity:0.941" fill="#555555" d="M 336.5,142.5 C 334.485,143.924 332.152,144.59 329.5,144.5C 331.515,143.076 333.848,142.41 336.5,142.5 Z"/></g>
<g><path style="opacity:0.596" fill="#858585" d="M 116.5,146.5 C 117.906,146.973 118.573,147.973 118.5,149.5C 117.094,149.027 116.427,148.027 116.5,146.5 Z"/></g>
<g><path style="opacity:0.584" fill="#898989" d="M 119.5,150.5 C 120.906,150.973 121.573,151.973 121.5,153.5C 120.094,153.027 119.427,152.027 119.5,150.5 Z"/></g>
<g><path style="opacity:0.949" fill="#575757" d="M 303.5,151.5 C 301.485,152.924 299.152,153.59 296.5,153.5C 298.515,152.076 300.848,151.41 303.5,151.5 Z"/></g>
<g><path style="opacity:0.969" fill="#555555" d="M 277.5,158.5 C 275.485,159.924 273.152,160.59 270.5,160.5C 272.515,159.076 274.848,158.41 277.5,158.5 Z"/></g>
<g><path style="opacity:0.753" fill="#696969" d="M 29.5,179.5 C 29.5905,182.152 28.9238,184.485 27.5,186.5C 27.4095,183.848 28.0762,181.515 29.5,179.5 Z"/></g>
</svg>
